<?xml version="1.0" encoding="utf-8"?>
<!DOCTYPE svg PUBLIC "-//W3C//DTD SVG 1.1//EN" "http://www.w3.org/Graphics/SVG/1.1/DTD/svg11.dtd">
<svg version="1.1" id="Layer_6" xmlns="http://www.w3.org/2000/svg" xmlns:xlink="http://www.w3.org/1999/xlink" x="0px" y="0px"
	 width="100px" height="100px" viewBox="0 0 100 100" enable-background="new 0 0 100 100" xml:space="preserve">
<path d="M50,1.125C23.007,1.125,1.125,23.007,1.125,50S23.007,98.875,50,98.875S98.875,76.993,98.875,50S76.993,1.125,50,1.125z
	 M31.687,83.091h-13.74V38.883h13.74V83.091z M24.82,32.84c-4.404,0-7.969-3.57-7.969-7.968c0.001-4.394,3.565-7.964,7.969-7.964
	c4.392,0,7.962,3.57,7.962,7.964C32.782,29.271,29.211,32.84,24.82,32.84z M83.149,83.091h-13.73V61.592
	c0-5.127-0.095-11.721-7.141-11.721c-7.147,0-8.246,5.584-8.246,11.35v21.869H40.304V38.883h13.179v6.041h0.184
	c1.835-3.476,6.316-7.14,13-7.14c13.913,0,16.482,9.156,16.482,21.059V83.091z"/>
</svg>
